<svg xmlns="http://www.w3.org/2000/svg" width="256" height="256" viewBox="0 0 256 256"><path d="M 116.4 34.2 c 1.6 22.4 1.7 29.5 0.6 43.8 c -0.6 8.5 -1.3 16.5 -1.7 17.7 c -0.3 1.4 -3.2 3.9 -7.3 6.5 c -3.7 2.4 -10.7 6.7 -15.5 9.7 l -8.6 5.5 l 2.4 2.3 l 2.4 2.4 l 11.1 -3 c 6.2 -1.6 11.2 -2.6 11.2 -2.1 c 0 0.4 -1.6 5.4 -3.6 11.1 c -7.9 22.9 -19 40.6 -35.9 57.4 c -14.8 14.8 -29.1 24.2 -48.5 32 l -7.5 3 l 0 5 c 0 5.9 0 5.9 12.4 1.9 c 34.5 -11.3 65.9 -37.5 87.3 -72.9 c 5.9 -9.7 15.5 -29.9 18.2 -38.2 c 0.9 -2.8 2.3 -5.7 3.1 -6.3 c 0.7 -0.6 7.4 -2.7 14.7 -4.6 c 7.3 -2 17.4 -4.7 22.3 -6 c 5 -1.3 12.9 -3.4 17.8 -4.6 c 4.8 -1.2 8.7 -2.5 8.7 -2.8 c 0 -0.8 -28.7 -27.4 -30 -27.8 c -0.5 -0.2 -6.2 3 -12.7 7.2 c -6.5 4.1 -11.9 7.3 -12.1 7.1 c -0.2 -0.1 0.7 -5.3 1.9 -11.6 c 1.1 -6.2 2.2 -14.2 2.3 -17.8 l 0.1 -6.5 l -16 -8.3 c -8.8 -4.5 -16.4 -8.3 -16.9 -8.3 c -0.4 0 -0.6 3.7 -0.2 8.2 z M 62 46.1 c 0 0.6 0.7 5.4 1.6 10.7 c 2 11.5 1.4 33.8 -1.1 45.2 c -4.1 18.5 -12.3 36.2 -22.7 49 c -3.4 4.2 -2.5 5 5.4 5 c 5.5 0 5.8 -0.1 9.1 -4.3 c 12.6 -15.4 34.4 -59.1 45.7 -91.4 c 1.7 -4.8 1.7 -5.2 0.2 -5.7 c -4.4 -1.4 -36.3 -9.6 -37.2 -9.6 c -0.5 0 -1 0.5 -1 1.1 z M 168.8 172.7 c 15.2 15.3 32.7 33.5 38.7 40.5 c 6 7.1 11.2 12.8 11.5 12.8 c 0.9 0 21 -23 21 -23.9 c 0 -2 -26.9 -20.7 -46.7 -32.4 c -17.1 -10.1 -47.4 -24.7 -51.3 -24.7 c -0.5 0 11.5 12.5 26.8 27.7 z"/></svg>
