<svg xmlns="http://www.w3.org/2000/svg" width="256" height="256" viewBox="0 0 256 256"><path d="M 103.1 11.7 c -1.8 14.5 -3.8 26.7 -6.2 36.6 c -2.5 10.1 -0.8 8.9 -18.9 14.2 c -12 3.5 -34.9 8.5 -39.1 8.5 c -2 0 -1.2 1.2 5.6 8 c 4.4 4.4 8.7 8.3 9.7 8.6 c 1 0.3 3.4 0 5.5 -0.6 c 4.8 -1.3 25.3 -6 26.4 -6 c 1.9 0 -9.2 23.9 -17.2 37 c -8.2 13.5 -20.9 29.7 -32 40.8 c -9.2 9.2 -14.5 13.7 -28.1 23.6 c -4 2.9 -4.3 3.3 -2.9 5.5 c 0.7 1 2.7 0.4 9.7 -3.3 c 28.5 -14.8 59.6 -49.1 91.8 -101.3 c 4.8 -7.8 6.1 -9.2 8.9 -9.8 c 1.7 -0.4 9.7 -2.2 17.7 -4.1 c 8 -1.9 19.5 -4.6 25.5 -6 c 13.9 -3.3 13.7 -3.2 13.3 -4.4 c -0.6 -1.9 -20.1 -23 -21.2 -23 c -0.7 0 -5 1.6 -9.6 3.6 c -9.9 4.2 -12 4.9 -12 4 c 0 -0.4 1.4 -3.3 3 -6.6 c 1.7 -3.3 3 -6.3 3 -6.8 c 0 -0.9 -29.3 -27.4 -30.9 -28 c -0.5 -0.2 -1.4 4.1 -2 9.5 z M 132.6 97.5 c -0.9 1.3 -1.6 2.6 -1.6 2.9 c 0 0.2 7 4.1 15.7 8.6 c 21 10.9 36.6 21.4 62.1 42 c 11.8 9.4 21.5 17 21.7 16.8 c 0.9 -0.9 18.8 -28.3 19.1 -29.3 c 0.5 -1.2 -2.4 -2.4 -32.1 -14 c -42.3 -16.6 -78 -29.5 -81.6 -29.5 c -0.9 0 -2.4 1.1 -3.3 2.5 z M 111.8 128.4 c 0.2 23.2 0 29.5 -1 30.3 c -1.8 1.4 -17.7 6.8 -26.9 9.3 c -6.9 1.7 -23.7 5 -26.1 5 c -0.5 0 1.8 2.3 5.1 5 c 3.4 2.8 7.1 6.4 8.3 8.1 c 2.7 3.6 2.3 3.6 17.3 -2.1 c 17.4 -6.5 19.6 -7.3 20.2 -6.6 c 1.9 1.9 -6.7 32.6 -12.3 43.8 c -1.9 3.7 -3.4 6.9 -3.4 7.2 c 0 0.7 30.7 24.5 32.4 25.2 c 1.4 0.5 1.6 -3.8 1.8 -41.7 l 0.3 -42.3 l 26 -9.8 c 14.3 -5.3 26.2 -9.7 26.5 -9.8 c 0.2 0 -4 -4.5 -9.4 -9.9 l -9.9 -9.9 l -5.6 4.1 c -6 4.5 -26.1 16.7 -27.3 16.7 c -0.4 0 -0.8 -8.2 -0.8 -18.3 l 0 -18.2 l -7.7 -7.8 l -7.8 -7.7 l 0.3 29.4 z"/></svg>
