<svg xmlns="http://www.w3.org/2000/svg" width="256" height="256" viewBox="0 0 256 256"><path d="M 151 30.9 c -7.3 5.4 -24.7 15.5 -33.2 19.5 c -17.4 8.1 -42.6 14.6 -56.5 14.6 c -2.9 0 -5.3 0.2 -5.3 0.5 c 0 0.3 3.7 5.5 8.2 11.5 c 5.7 7.8 8.6 10.9 9.7 10.5 c 3.7 -1.1 24.7 -6.5 25.5 -6.5 c 0.9 0 0.1 33.6 -1 42.4 c -0.8 6 -1.5 6.3 -21.9 10.6 c -8.2 1.7 -15 3.2 -15.2 3.3 c -0.3 0.3 9.1 13.2 13.6 18.8 l 3 3.6 l 7 -2 c 3.9 -1.2 7.3 -1.8 7.6 -1.5 c 0.9 0.8 -7.4 37 -8.8 38.4 c -0.8 0.8 -45.9 8.5 -65.6 11.2 c -3 0.4 -5.3 1.1 -5.2 1.7 c 0.2 0.8 9.8 12.9 14.6 18.3 c 0.9 1 2.7 0.8 9.6 -1.1 c 22 -6.4 87.5 -21.5 106.9 -24.7 c 3.6 -0.6 9.7 -1.7 13.5 -2.5 c 11.9 -2.4 45 -7.4 65.9 -10 c 10.9 -1.3 20 -2.6 20.2 -2.8 c 0.6 -0.6 -33.4 -28.7 -34.7 -28.7 c -0.7 0 -7.6 3.4 -15.2 7.6 c -7.6 4.1 -17.1 8.7 -21 10.1 c -11.1 3.8 -23.7 7.2 -23.7 6.3 c 0 -0.4 1.2 -3.9 2.6 -7.6 c 1.4 -3.8 4.4 -12.5 6.6 -19.4 c 6.9 -22 3.9 -18.7 23 -24.5 c 9.2 -2.8 16.9 -5.3 17.3 -5.6 c 0.3 -0.3 -5.1 -5.9 -12 -12.4 c -9.1 -8.5 -12.4 -12.2 -12 -13.4 c 0.4 -0.9 2.9 -10.1 5.6 -20.4 l 5 -18.8 l -9.8 -9.2 c -5.4 -5.1 -12.3 -11.6 -15.4 -14.5 c -3.1 -2.8 -5.8 -5.2 -6 -5.1 c -0.2 0 -1.5 0.8 -2.9 1.8 z m -0.1 50.8 c 0 8.2 -0.4 17 -0.7 19.8 c -0.7 4.7 -1 5.2 -5.9 8.1 c -6.1 3.6 -22.1 10.9 -22.7 10.3 c -0.2 -0.2 1.5 -7.6 3.9 -16.4 c 3.2 -12 4 -16.3 3.2 -17.1 c -0.7 -0.6 -5.2 -2.6 -10 -4.4 c -5.7 -2.2 -8.4 -3.6 -7.5 -4.1 c 0.8 -0.4 8.1 -2.6 16.3 -4.8 c 8.3 -2.2 16.4 -4.5 18 -5 c 5.7 -1.8 5.5 -2.2 5.4 13.6 z m -6.5 61.5 c -1.3 7.3 -7.5 33.9 -8.7 37.4 c -0.9 2.9 -1.9 4 -4.2 4.6 c -5 1.4 -32.8 6.8 -33.2 6.5 c -0.1 -0.2 1 -3.7 2.6 -7.8 c 1.6 -4.1 4.7 -13.3 7.1 -20.4 c 2.3 -7.2 4.5 -13.4 5 -13.8 c 0.9 -1 27.6 -9.4 30.2 -9.6 c 1.4 -0.1 1.6 0.5 1.2 3.1 z"/></svg>
