<svg xmlns="http://www.w3.org/2000/svg" width="256" height="256" viewBox="0 0 256 256"><path d="M 126.3 40.2 l -50.3 20.2 l 0 3.3 c 0 4.2 -0.5 4.2 23.7 0.3 c 52.5 -8.4 72.3 -11.4 72.8 -10.8 c 0.8 0.7 -5.8 22.8 -6.7 22.8 c -0.5 0 -3.9 2.6 -7.7 5.8 c -17.1 14.8 -37.7 26.6 -68.9 39.7 c -6.1 2.6 -11.4 5 -11.6 5.4 c -0.2 0.3 0.9 2.1 2.6 4 l 3 3.3 l 13.7 -3.6 c 7.6 -2 14.2 -3.6 14.7 -3.6 c 1.4 0 3.4 8.2 4.1 16.1 l 0.6 6.6 l -5.4 1.1 c -3 0.6 -11.6 2.5 -19.2 4.1 l -13.8 2.9 l -1.6 -3.2 c -1 -1.7 -2.5 -4.8 -3.4 -6.8 c -1 -2 -4.6 -8.7 -8 -14.9 c -3.4 -6.1 -6.2 -11.7 -6.2 -12.3 c 0 -0.6 1.4 -11 3.1 -23.1 c 1.8 -12.1 3.6 -27 4.2 -33 c 1.1 -11.6 1.2 -22 0.3 -19.5 c -11.6 31.6 -22.6 53.4 -35.1 69.8 c -4.4 5.9 -5.3 7.6 -4.1 8.3 c 1.8 1.2 9.7 3.4 17.1 4.9 c 3.2 0.6 5.9 1.4 6.2 1.8 c 0.8 1.4 5.9 31.3 5.3 31.8 c -0.6 0.6 -11.5 2.8 -33.2 6.9 c -7.7 1.4 -15.2 2.8 -16.7 3.1 l -2.8 0.6 l 5.9 6.6 c 3.2 3.7 7.2 8.1 8.7 9.9 l 2.9 3.2 l 11 -2.9 c 13.6 -3.8 27.7 -7.1 28 -6.8 c 0.2 0.3 4.8 35.8 6.1 47.3 l 0.7 5.9 l 4 -4.4 c 8.1 -9.1 22.7 -29.9 22.7 -32.2 c 0 -0.7 -1.8 -6.2 -3.9 -12.1 c -4.6 -12.8 -5.9 -11.2 12.7 -15.2 c 6.8 -1.4 13 -2.9 13.8 -3.2 c 1 -0.4 1.4 0.3 1.4 2.6 c 0 5.7 -2.1 22 -3.9 30.3 l -1.7 8.2 l -11 4.5 c -6 2.5 -11.2 5 -11.6 5.5 c -0.4 0.6 -0.8 2.1 -0.8 3.4 c 0 2 0.4 2.3 2.8 1.8 c 1.5 -0.3 9.2 -1.3 17.2 -2.1 c 8 -0.9 17.2 -2 20.5 -2.5 c 3.3 -0.5 15.9 -2.1 28 -3.5 c 29.1 -3.4 27.6 -3 22.8 -6.9 c -2.1 -1.7 -5.3 -4.5 -7.2 -6.2 c -3.2 -2.9 -3.3 -3.1 -1.8 -5.5 c 2.4 -3.7 5.7 -13 10.2 -28.9 l 4.1 -14.5 l 4.5 -0.8 c 18.2 -3.2 52 -8.7 56.9 -9.3 c 3.3 -0.4 6 -1 6 -1.4 c 0 -1 -34 -29.6 -34.9 -29.3 c -0.3 0.1 -5.9 3.1 -12.5 6.7 c -6.5 3.6 -12.3 6.6 -12.8 6.6 c -0.6 0 -0.7 -1.1 -0.3 -2.8 c 0.4 -1.5 1.5 -6.5 2.5 -11.2 l 1.9 -8.5 l -9 -8.5 l -9 -8.5 l 13.8 -19 c 7.6 -10.5 14.2 -19.6 14.7 -20.3 c 0.5 -0.9 -0.8 -2.7 -4 -5.5 c -2.7 -2.3 -9.4 -8.4 -15 -13.5 c -5.6 -5 -10.3 -9.2 -10.5 -9.2 c -0.2 0.1 -23 9.1 -50.6 20.2 z m 36.6 91 c 0.1 6.9 0.6 6.5 -14.6 10.6 l -11.3 3 l 0 -5.7 l 0 -5.7 l -7.5 -4 c -4.1 -2.1 -7.3 -4.3 -7.2 -4.8 c 0.2 -0.5 9.1 -3.3 19.8 -6.1 l 19.4 -5.1 l 0.6 6.1 c 0.4 3.3 0.7 8.6 0.8 11.7 z m -0.9 29 c -0.1 2.2 -1.9 21.1 -2.6 26 c -0.3 2.8 -1.1 4.8 -1.8 4.8 c -1 0 -21.6 8.1 -33.8 13.4 c -2.1 0.9 -3.9 1.6 -4.1 1.6 c -0.3 0 1.4 -3.7 3.7 -8.3 c 2.3 -4.5 5.4 -12.9 7 -18.7 c 1.5 -5.8 3.1 -11.4 3.5 -12.5 c 0.6 -1.6 3.1 -2.5 13.2 -4.7 c 14.8 -3.1 14.9 -3.1 14.9 -1.6 z"/></svg>
