<svg xmlns="http://www.w3.org/2000/svg" width="256" height="256" viewBox="0 0 256 256"><path d="M 125.4 17.6 c -26.7 16.9 -48.6 25.1 -74.2 27.7 l -12.2 1.2 l 5.5 7.5 c 3 4.1 6.8 9.1 8.3 11 l 2.9 3.4 l 7.9 -1.8 c 4.3 -1 8.5 -2.1 9.3 -2.4 c 1.2 -0.4 1.3 1.2 0.7 10.3 c -3.4 50.1 -22.3 99.4 -52.3 136.6 c -4.5 5.6 -5.3 7.3 -5.3 10.7 c 0 2.2 0.4 4.3 0.9 4.6 c 1.2 0.8 5.5 -2.7 16.5 -13.3 c 25.8 -25 47.4 -60.6 63.5 -104.7 l 2.2 -6.1 l 30 -7.8 c 16.4 -4.3 29.9 -8.2 29.9 -8.6 c 0 -1 -19.9 -17.9 -21.1 -17.9 c -0.5 0 -8.2 4.7 -17 10.6 c -8.9 5.8 -16.3 10.3 -16.6 10.1 c -0.2 -0.3 0.8 -5.1 2.3 -10.6 c 1.6 -6 2.3 -10.5 1.8 -11 c -0.5 -0.5 -3.9 -2.5 -7.6 -4.5 c -3.7 -1.9 -6.4 -3.8 -5.9 -4.1 c 0.5 -0.3 4.2 -1.4 8.3 -2.4 c 12 -3.1 56 -14.9 60.6 -16.3 l 4.3 -1.3 l -11.3 -10.6 c -6.2 -5.8 -13.1 -12.2 -15.4 -14.2 l -4.1 -3.6 l -11.9 7.5 z M 206.5 85.9 c -2.1 1.9 -59.3 24.8 -101.5 40.7 c -11.1 4.1 -13.4 5.6 -14.4 9.2 c -0.5 1.8 -0.7 3.4 -0.5 3.7 c 0.3 0.2 2.2 0 4.2 -0.5 c 4.8 -1 5.2 -0.2 4.3 8.8 c -2.1 19.9 -10.1 44.6 -21.6 66.5 c -3.8 7.3 -3.9 7.8 -1.8 7.1 c 3.8 -1.2 11 -6.5 17.3 -12.9 c 10 -10.2 19.3 -25.3 26.4 -43 c 6.2 -15.7 6.4 -14.2 -2.1 -21.5 c -4 -3.5 -7.4 -6.6 -7.6 -7 c -0.3 -0.9 0.3 -1.1 19.5 -4.6 c 8.4 -1.5 15.5 -2.5 15.8 -2.3 c 0.2 0.3 0 4.7 -0.5 9.9 c -1.8 17.3 -7.6 39.2 -14.4 54.3 l -2.6 5.9 l -3.8 -0.6 c -3.2 -0.5 -7.5 0.6 -6.2 1.7 c 0.3 0.2 2 1.4 3.8 2.6 l 3.3 2.3 l -2.7 4.6 c -4.4 7.7 -9.6 15.3 -14.7 21.6 c -2.6 3.3 -4.5 6.1 -4.2 6.4 c 0.7 0.7 11.4 -5.6 17.5 -10.4 c 3 -2.3 7.7 -6.5 10.5 -9.3 c 2.7 -2.8 5.3 -5.1 5.7 -5.1 c 0.6 0 18.8 11.2 43.3 26.6 c 3.8 2.4 7.5 4.4 8.1 4.4 c 1.7 0 10.3 -20 22 -51 c 1.4 -3.6 3.6 -9.4 4.9 -13 c 7.9 -20.8 24.5 -67.7 24.5 -69.1 c 0 -2.7 -27.4 -26.9 -30.5 -26.9 c -0.6 0 -1.5 0.4 -2 0.9 z m -7.9 36.7 c 1.1 4.3 -0.3 22.1 -2.6 33.4 c -3.4 16.8 -14.9 51.3 -19.5 58.6 l -1.4 2.2 l -15.7 -5.4 c -8.6 -2.9 -15.9 -5.5 -16.1 -5.8 c -0.3 -0.3 2 -4.7 5 -9.9 c 9.1 -15.1 15.7 -32.2 19.7 -50.7 l 2 -9.4 l -4.2 -4.3 c -2.3 -2.3 -3.9 -4.5 -3.6 -4.9 c 0.8 -0.7 29.2 -6.1 33 -6.3 c 2.2 -0.1 2.9 0.5 3.4 2.5 z"/></svg>
