<svg xmlns="http://www.w3.org/2000/svg" width="256" height="256" viewBox="0 0 256 256"><path d="M 158.5 20.2 c 1.4 6.3 2.6 22.7 3.2 44 l 0.6 23.7 l -2.9 1.1 c -14.6 5.6 -71.5 20.2 -73 18.8 c -0.2 -0.2 -1.3 -6.2 -2.4 -13.4 c -1.1 -7.1 -2.3 -14.1 -2.6 -15.6 c -0.4 -2.2 -2 -3.3 -10.2 -6.8 c -5.3 -2.3 -13.5 -5.9 -18.2 -8 c -13.9 -6.1 -13.6 -6.2 -8.9 1.5 c 2.2 3.6 5.5 10.1 7.4 14.3 c 3.9 8.9 11.9 32.2 11.3 32.8 c -0.3 0.2 -11.4 2.3 -24.9 4.5 c -13.4 2.3 -24.8 4.5 -25.3 5 c -0.5 0.4 1.3 3.3 4 6.6 c 2.7 3.2 6.5 7.9 8.4 10.5 c 1.9 2.6 4.2 4.7 5 4.7 c 0.8 0 9.8 -2.2 20 -4.9 c 12.5 -3.3 18.7 -4.5 19.1 -3.8 c 0.4 0.6 1.7 5.9 2.9 11.7 c 1.2 5.8 2.3 11.3 2.6 12.1 c 0.2 0.8 3.9 3.1 8.1 5 l 7.7 3.5 l -9 2.9 c -4.9 1.6 -9 2.9 -9.1 3 c 0 0.1 -0.4 1.8 -0.8 3.9 l -0.7 3.8 l 7.1 -0.7 c 3.9 -0.3 7.1 -0.3 7.1 0.1 c 0 2.1 -12.8 18.4 -21.9 27.8 c -8.8 9.1 -27.6 24.7 -31.3 25.9 c -0.8 0.3 -0.7 1.1 0.1 2.7 c 1.7 3.1 4.8 2.5 17.1 -3.5 c 16.2 -7.8 60.9 -34.6 61.7 -37 c 0.2 -0.5 -4.3 -4.5 -9.9 -8.9 c -12 -9.4 -12.9 -8.5 10.7 -11 c 16.3 -1.7 53.5 -5.9 62.8 -7.1 c 3.2 -0.4 6 -1 6.2 -1.4 c 0.2 -0.4 -2.9 -3.7 -7 -7.4 c -4.1 -3.7 -7.5 -7.4 -7.5 -8.3 c 0 -0.9 1.7 -6.3 3.8 -12.2 c 2.2 -5.8 5.2 -14.9 6.7 -20.2 c 2.7 -9.2 3 -9.7 5.9 -10.3 c 17.1 -3 57.4 -9.6 59.2 -9.6 c 1.3 0 2.4 -0.4 2.4 -0.8 c 0 -0.9 -32.4 -30.4 -33.9 -31 c -0.4 -0.1 -5.6 2 -11.6 4.8 c -5.9 2.8 -10.9 4.9 -11.1 4.7 c -0.2 -0.2 0.8 -6.8 2.1 -14.6 l 2.4 -14.4 l -3.5 -4.2 c -4.8 -5.9 -27.9 -26.5 -29.7 -26.5 c -0.4 0 -0.5 1 -0.2 2.2 z m 2.1 105.5 c -1.2 20.7 -0.7 19.5 -8.5 22 c -27.7 9 -54 17.3 -55.2 17.3 c -1.1 0 -1.8 -2.3 -2.7 -8.8 c -0.7 -4.8 -2 -12.7 -2.9 -17.5 c -1.4 -6.9 -1.4 -9 -0.5 -9.6 c 1.8 -1.1 64 -14.7 68.6 -15 c 1.8 -0.1 1.9 0.5 1.2 11.6 z M 166 190 c 15.9 12.4 29.9 27 42.3 44.5 c 1.4 1.9 1.6 1.9 10.3 -2.2 c 4.9 -2.3 11.4 -5.2 14.4 -6.4 c 3 -1.2 5.8 -2.5 6.2 -2.8 c 1.3 -1.1 -23.8 -16.7 -43.4 -26.9 c -14.5 -7.5 -26.1 -12 -33.5 -12.8 l -5.8 -0.7 l 9.5 7.3 z"/></svg>
