<svg xmlns="http://www.w3.org/2000/svg" width="256" height="256" viewBox="0 0 256 256"><path d="M 99 8.7 c 0 0.5 1.1 6.6 2.5 13.8 c 2.9 15 6.8 44.2 6.1 45.4 c -0.5 0.7 -9.4 4.8 -26 12 l -4.8 2.1 l 2.8 3.4 c 1.6 1.9 3.4 3.5 3.9 3.5 c 0.6 0.1 6 -1.3 12 -2.9 c 6.1 -1.6 11.8 -3 12.7 -3 c 1.9 0 2.5 2.2 3.4 14.1 l 0.6 8.6 l -15.8 3.2 c -8.8 1.8 -16.5 3.3 -17.3 3.4 c -0.8 0.1 -2.6 -2 -4 -4.8 c -11.3 -22.3 -27.5 -49.5 -28.7 -48.3 c -0.2 0.3 0.2 3.8 1.1 7.9 c 3.7 18.6 8.7 49 8.2 49.5 c -0.6 0.7 -7.2 2 -31.7 6.5 c -9.1 1.6 -17.5 3.2 -18.7 3.5 c -2.1 0.6 -1.8 1.1 3.6 7.3 c 3.2 3.6 7.2 8.1 8.7 9.9 l 2.9 3.2 l 9 -2.5 c 13.2 -3.7 29.6 -7.7 30 -7.3 c 0.2 0.3 4.7 34.5 6.1 47.3 l 0.7 5.9 l 4 -4.4 c 8.1 -9.1 22.7 -29.9 22.7 -32.2 c 0 -0.7 -1.8 -6.2 -3.9 -12.1 c -3.9 -10.8 -3.9 -10.8 -1.7 -11.7 c 3 -1.2 25.9 -6 26.4 -5.6 c 0.5 0.5 2 18.7 2.4 29.5 l 0.3 8.5 l -13.5 5.5 c -7.4 3 -13.8 6 -14.2 6.5 c -0.4 0.6 -0.8 2.1 -0.8 3.4 c 0 2 0.4 2.2 3.8 1.7 c 7.5 -1.1 20.7 -2.5 22.8 -2.5 c 1.9 0 2.2 0.7 2.7 7.7 c 0.7 7.9 -0.6 34.5 -1.7 37.3 c -0.4 1 2.6 6 8.6 14 l 9.3 12.5 l 0.3 -36.5 c 0.1 -20 0.6 -36.8 1 -37.2 c 0.4 -0.4 10.2 -1.8 21.7 -3.3 c 11.6 -1.4 22.3 -2.8 23.9 -3.1 l 2.8 -0.6 l -3.8 -3.2 c -2.2 -1.7 -5.4 -4.5 -7.3 -6.2 c -3.2 -2.9 -3.3 -3.1 -1.8 -5.5 c 2.3 -3.6 7 -16.8 10.7 -30.6 c 2.2 -8.2 3.9 -12.4 4.9 -12.8 c 2.7 -0.8 47.1 -8.4 56.9 -9.6 c 5 -0.7 9.2 -1.6 9.2 -2 c 0 -0.9 -34.1 -29.5 -34.9 -29.2 c -0.3 0.1 -6 3.1 -12.5 6.7 c -6.6 3.6 -12.3 6.6 -12.9 6.6 c -0.5 0 -0.6 -1.2 -0.2 -2.8 c 0.4 -1.5 1.5 -6.5 2.5 -11.2 l 1.9 -8.5 l -9.2 -8.8 c -5.1 -4.8 -12 -11.3 -15.4 -14.3 l -6.2 -5.6 l -6.9 5.9 c -7.6 6.6 -19.5 15.3 -20.8 15.3 c -0.5 0 -0.7 -5.8 -0.6 -12.9 c 0.5 -15.2 1.9 -13.2 -15.2 -20.6 c -6.1 -2.6 -13.5 -6.1 -16.5 -7.6 c -6.2 -3.2 -6.1 -3.2 -6.1 -2.2 z m 63.9 77.5 c 0.1 4.5 -0.3 5.9 -1.6 6.7 c -1.7 0.8 -24.4 7.1 -25.9 7.1 c -0.6 0 0.4 -24.1 1.1 -24.8 c 0.1 -0.2 5.8 -1.8 12.6 -3.5 l 12.4 -3.3 l 0.6 6.1 c 0.4 3.3 0.7 8.6 0.8 11.7 z m -0.9 29 c -0.1 2.2 -1.9 21.1 -2.6 26 c -0.3 2.8 -1.1 4.8 -1.8 4.8 c -0.7 0 -5.7 1.8 -11.1 4 c -5.4 2.2 -10.3 4 -10.9 4 c -1.2 0 -1 -33 0.3 -34.2 c 0.6 -0.7 21.3 -5.4 24.9 -5.7 c 0.6 0 1.2 0.5 1.2 1.1 z"/></svg>
