<svg xmlns="http://www.w3.org/2000/svg" width="256" height="256" viewBox="0 0 256 256"><path d="M 105.4 10.7 c 3.4 16.1 9.6 57 9.6 62.9 c 0 1.7 -0.9 2.5 -3.7 3.5 c -14.1 4.5 -46.3 17 -46.3 17.9 c 0 0.3 1.3 1.8 2.8 3.3 l 2.8 2.7 l 22.8 -6.1 c 12.5 -3.3 23 -5.9 23.1 -5.7 c 0.4 0.4 4.5 41.7 4.5 44.8 c 0 1.7 -0.4 1.9 -2.6 1.4 c -2.6 -0.7 -2.7 -0.6 -2 3.2 c 0.5 2.3 1.8 4.7 3.2 5.9 c 2.3 2 2.4 2.5 3.5 25 c 1 21.9 0.6 41 -1.1 50.2 c -0.7 4.1 -0.6 4.3 8.4 16.5 l 9.1 12.3 l 0.3 -44.4 c 0.2 -42.4 0.3 -44.3 2.1 -43.8 c 1 0.2 10.2 6.2 20.5 13.2 c 10.3 7 18.9 12.6 19 12.4 c 0.2 -0.2 1.7 -3.1 3.4 -6.4 c 9 -18 19 -47.6 29.7 -87.5 c 2.6 -9.6 5.3 -19.7 6.1 -22.4 c 2.4 -8.4 2.4 -8.4 -10.8 -20.8 c -6.8 -6.3 -12.9 -11.8 -13.6 -12.2 c -0.8 -0.5 -3.2 0.7 -6.5 3.1 c -2.9 2.2 -8.4 5.8 -12.2 8.1 c -7.1 4.2 -32.5 16.2 -34.3 16.2 c -0.6 0 -0.8 -7.2 -0.4 -18.8 c 0.4 -15.2 0.2 -18.9 -0.9 -19.9 c -0.8 -0.6 -5.7 -3 -10.9 -5.3 c -5.2 -2.3 -13 -5.9 -17.3 -8.1 c -4.3 -2.1 -8.1 -3.9 -8.4 -3.9 c -0.2 0 -0.2 1.2 0.1 2.7 z m 87.3 60 c 0.8 2.2 -1.2 32.3 -3.2 47.8 c -0.9 6.6 -2.8 18.1 -4.4 25.5 c -3.2 15.7 -1.9 15 -16.4 9.6 c -5 -1.9 -13.4 -4.9 -18.5 -6.8 l -9.4 -3.3 l 0.4 -30.2 c 0.2 -16.7 0.6 -30.5 0.9 -30.7 c 0.4 -0.5 9.1 -2.9 39.9 -11.1 c 4.7 -1.2 8.9 -2.3 9.3 -2.4 c 0.4 0 1.1 0.7 1.4 1.6 z M 34 64 c 0 0.8 0.5 3.3 1 5.6 c 3.7 15.8 13.2 75.1 16.4 102.3 c 1.4 11.8 2.7 21.6 2.9 21.7 c 0.5 0.5 15.5 -18.7 21.5 -27.5 l 5.4 -8.1 l -2.8 -8.2 c -7.8 -23.8 -20.5 -50.9 -33.5 -71.8 c -7.6 -12.2 -10.9 -16.5 -10.9 -14 z"/></svg>
