<svg xmlns="http://www.w3.org/2000/svg" width="256" height="256" viewBox="0 0 256 256"><path d="M 81 20.6 c 6.3 6 16.6 15.8 22.8 22 l 11.2 11.2 l 5.6 -6.1 c 3 -3.4 8.2 -9.6 11.5 -13.9 c 5.3 -6.9 5.8 -7.8 4.2 -8.7 c -5.8 -3 -43.8 -12.2 -56.8 -13.6 c -3.3 -0.4 -6.9 -0.9 -8 -1.1 c -1.1 -0.3 3.2 4.3 9.5 10.2 z M 148 55.2 c -9.4 6 -36.7 19.7 -49 24.5 c -12.4 4.8 -24.2 8.6 -32.5 10.3 c -3.3 0.7 -6.4 1.6 -6.8 2 c -0.5 0.4 1.3 2 3.8 3.5 l 4.7 2.7 l 17.9 -3.6 c 9.8 -2 18.2 -3.6 18.6 -3.6 c 0.9 0 -0.4 17.4 -2.4 31.2 c -1.5 11.2 -1.8 12 -4.4 13.3 c -3.9 2.1 -25.1 9 -33.6 11 c -4 0.9 -7.3 2 -7.3 2.4 c 0 0.3 2.1 1.7 4.7 3.2 l 4.6 2.5 l 15.4 -3.2 l 15.5 -3.1 l -0.7 3.6 c -1.3 7 -6 19.7 -10.6 28.7 c -11.2 22.2 -28.2 38.5 -59.4 57.3 c -5.8 3.4 -10.5 6.5 -10.5 6.8 c 0 1.1 10 -0.8 18.1 -3.6 c 19 -6.4 33.1 -15.3 48.5 -30.6 c 7.9 -7.9 13.3 -14.4 19 -23.1 c 7.7 -11.6 18.8 -32.9 21.3 -40.6 c 0.7 -2 2 -3.9 2.9 -4.2 c 0.9 -0.3 14 -3 29.1 -6.1 c 25.6 -5.1 29.1 -6 28 -6.8 c -0.2 -0.2 -7.1 -5.4 -15.2 -11.6 l -14.8 -11.2 l -2.7 1.9 c -4.9 3.4 -16.3 9.4 -16.8 8.9 c -0.3 -0.3 -0.1 -3 0.6 -6.1 c 0.6 -3.1 0.9 -6 0.5 -6.6 c -0.3 -0.6 -4.9 -4.2 -10.1 -8.1 c -5.3 -3.9 -9.3 -7.4 -8.9 -7.7 c 0.6 -0.6 28.4 -6.5 55.8 -11.8 c 7.5 -1.4 13.7 -3 13.7 -3.4 c 0 -0.7 -27.7 -21.9 -29.5 -22.6 c -0.5 -0.2 -3.9 1.5 -7.5 3.8 z M 150.5 174.3 c 18.7 13.8 37.5 31.8 47.9 45.8 c 3.9 5.3 7.6 10.4 8.1 11.4 c 1 1.6 1.8 1.4 10.5 -2.7 c 5.2 -2.5 13 -6 17.3 -7.8 c 4.2 -1.7 7.7 -3.7 7.7 -4.2 c 0 -0.6 -3.3 -4.3 -7.3 -8.2 c -19.5 -18.9 -46.4 -31.5 -76 -35.5 c -11.1 -1.5 -11.8 -1.4 -8.2 1.2 z"/></svg>
