<svg xmlns="http://www.w3.org/2000/svg" width="256" height="256" viewBox="0 0 256 256"><path d="M 86 33.2 c 0 2.9 -0.4 5.8 -0.8 6.5 c -1 1.5 -12.9 7 -24.2 11.1 c -9.8 3.5 -17.9 5.7 -30.3 8.1 l -8.8 1.7 l 11.6 12.7 c 7.2 7.8 12.1 12.4 12.8 12 c 0.7 -0.4 9.1 -6.9 18.8 -14.5 c 9.7 -7.6 17.9 -13.8 18.2 -13.8 c 1.7 0 -5.7 30.5 -10.7 44.2 c -11.9 32.4 -30.9 66.4 -51.3 91.6 c -4.1 5.1 -5.5 9.2 -3.2 9.2 c 4.9 0 28 -21.2 41.6 -38 c 9.7 -12 28.2 -39.4 37.5 -55.5 l 6.4 -11 l 14 -2.6 c 7.6 -1.5 21.3 -4.1 30.4 -5.8 c 43.4 -8.3 44.2 -8.4 45.2 -7 c 1.8 2.7 0.2 29.5 -2.7 43.9 c -5.2 26.4 -20.1 73.7 -22.8 72.7 c -0.7 -0.2 -7 -2.3 -14.2 -4.7 c -7.1 -2.3 -13.4 -4.6 -13.8 -5 c -0.4 -0.3 0.9 -3.3 2.8 -6.6 c 10.3 -16.9 18.7 -39.4 23.5 -62.7 c 1.2 -5.8 1.1 -5.9 -1.7 -8.9 c -3 -3.2 -20.7 -17.8 -21.5 -17.8 c -0.3 0 -0.8 6.9 -1.1 15.2 c -0.7 17.7 -2.6 31 -6.3 45.2 c -2.8 10.5 -10.1 30.6 -11.2 30.6 c -0.3 0 -3.2 -0.7 -6.4 -1.6 c -4.6 -1.3 -6.1 -1.4 -7.3 -0.4 c -1.2 1 -0.6 1.8 4.5 5.1 c 3.3 2.1 6 4.1 6 4.4 c 0 1.3 -10.5 18.9 -14.6 24.5 c -2.5 3.4 -4.3 6.5 -4 6.8 c 1.1 1.1 12.2 -7.4 20.9 -16.1 l 8.9 -8.8 l 25 15.6 c 13.7 8.7 25.1 15.6 25.2 15.4 c 2.5 -2.8 11.2 -25.2 23.9 -61.4 c 11.6 -33 31.7 -93.3 31.7 -95 c 0 -1.7 -18.8 -19.4 -25.6 -24.1 l -5.4 -3.7 l -6.7 3.1 c -7 3.2 -39.4 16.3 -61.3 24.7 c -6.9 2.7 -15.6 6.1 -19.5 7.6 c -3.8 1.5 -7.1 2.6 -7.3 2.4 c -0.2 -0.2 2.2 -5.3 5.3 -11.4 c 3.1 -6 5.5 -11.5 5.4 -12 c -0.5 -1.3 -35.1 -31.1 -36.1 -31.1 c -0.5 0 -0.8 2.4 -0.8 5.2 z M 97.7 124.3 c -0.7 14.3 -2.2 23.2 -6.7 37.3 c -4.2 13.3 -8.5 23.7 -14.1 34.3 c -2.8 5.1 -4.8 9.6 -4.5 9.8 c 1.1 1.2 10.8 -6.2 17.4 -13.1 c 8.7 -9.2 14.1 -17 20.8 -30.5 c 5.4 -11 12.4 -28 12.4 -30.4 c 0 -0.8 -2.1 -3.2 -4.7 -5.4 c -5.2 -4.3 -17.1 -13.5 -18.9 -14.6 c -0.8 -0.4 -1.3 3.3 -1.7 12.6 z"/></svg>
