<svg xmlns="http://www.w3.org/2000/svg" width="256" height="256" viewBox="0 0 256 256"><path d="M 112.4 24.6 c 0.3 3.8 0.9 16.6 1.3 28.5 c 0.7 24.8 1.8 21.9 -9.8 26.2 c -24.1 9 -34.6 13 -35.7 13.6 c -0.9 0.5 -0.4 1.5 1.7 3.5 l 2.9 2.8 l 11.4 -2.6 c 6.2 -1.5 15 -3.6 19.6 -4.8 c 4.6 -1.1 8.5 -1.8 8.8 -1.5 c 0.9 0.8 -2.5 24.8 -4.9 34.7 l -2.3 9.5 l -5.2 1.9 c -4.3 1.5 -5.2 2.3 -5.2 4.2 c 0 2.1 0.5 2.4 3.6 2.4 c 3.4 0 3.6 0.1 2.9 2.7 c -1.1 4.8 -10.2 23.1 -14.9 30.1 c -9.9 14.9 -24.2 28.4 -38 35.9 c -9.3 5 -22.7 10 -29.6 10.9 c -4.5 0.6 -5.1 0.9 -4.8 2.8 c 0.3 1.8 0.9 2.1 5.3 1.9 c 2.8 -0.1 9.7 -1.6 15.5 -3.3 c 36.4 -10.9 65.1 -36.2 84 -74 c 2.3 -4.7 4.3 -8.6 4.5 -8.8 c 0.1 -0.1 13.2 -1.2 29.1 -2.2 c 15.9 -1.1 30.9 -2.3 33.3 -2.6 l 4.5 -0.6 l -7.2 -6.5 c -4 -3.5 -7.2 -6.9 -7.2 -7.4 c 0 -0.5 2.8 -6.7 6.1 -13.7 c 18.5 -38.2 19 -39.5 17.7 -40.7 c -3.9 -3.4 -13.9 -11.6 -18.2 -14.8 l -4.8 -3.6 l -4.1 2.1 c -5.4 2.7 -26.7 11.8 -27.7 11.8 c -0.4 0 -0.7 -6.3 -0.7 -14 l 0.2 -14.1 l -16.4 -8.5 l -16.4 -8.6 l 0.7 6.8 z m 57.1 69.9 c -1.8 10.2 -3.5 18.9 -3.9 19.2 c -1 1.1 -34.9 12.3 -35.4 11.8 c -0.3 -0.3 0.4 -3.3 1.6 -6.7 c 1.1 -3.5 3.5 -12.4 5.2 -19.8 c 1.8 -7.4 3.4 -14 3.6 -14.7 c 0.2 -1 26.2 -8 30.5 -8.2 c 1.4 -0.1 1.2 2.2 -1.6 18.4 z M 45.4 81.4 c -0.3 0.8 1.5 5.5 4.1 10.5 c 9.6 19.2 19.7 47.3 22.4 62.5 c 0.6 3.3 1.2 6.1 1.4 6.3 c 0.7 0.7 16.7 -14.1 16.7 -15.4 c 0 -0.8 -3.1 -7.4 -6.9 -14.8 c -11.6 -22.2 -21.3 -36.9 -30.4 -45.8 c -5.1 -5 -6.4 -5.6 -7.3 -3.3 z M 165.9 174.7 c 16.3 16.4 33.2 34.2 37.6 39.5 l 8 9.7 l 3.3 -3.2 c 1.9 -1.8 6.7 -7.1 10.8 -11.9 l 7.5 -8.7 l -9.3 -6.9 c -17.8 -13.1 -39.2 -26.4 -57.7 -35.6 c -10.3 -5.2 -27.3 -12.6 -28.9 -12.6 c -0.5 0 12.5 13.4 28.7 29.7 z"/></svg>
